# xmcd
#
# Track frame offsets:
#	150
#	17719
#	37476
#	61081
#	77864
#	93808
#	108450
#	126465
#	148806
#	169229
#
# Disc length: 2491 seconds
#
# Revision: 0
# Processed by: cddbd v1.4PL0 Copyright (c) Steve Scherf et al.
# Submitted via: dBpowerAMP V4.0
#
DISCID=8d09b90a
DTITLE=侯湘婷 - 同名專輯
DYEAR=1900
DGENRE=抒情
TTITLE0=為你流的淚
TTITLE1=原來的你
TTITLE2=離開愛的日子
TTITLE3=都是真的
TTITLE4=變化
TTITLE5=非吸煙區
TTITLE6=關於永遠
TTITLE7=More and More
TTITLE8=眼睛眨三下
TTITLE9=黑眼圈
EXTD=
EXTT0=
EXTT1=
EXTT2=
EXTT3=
EXTT4=
EXTT5=
EXTT6=
EXTT7=
EXTT8=
EXTT9=
PLAYORDER=
